<?xml version="1.0" encoding="UTF-8"?>
<svg version="1.1" xmlns="http://www.w3.org/2000/svg" width="800" height="800">
<path d="M0 0 C11.01200052 8.84947674 21.065447 19.27902808 29.76953125 30.390625 C32.35925556 33.58228523 35.12637451 36.56641479 37.9375 39.5625 C42.37627517 44.30071359 46.52895882 49.18373853 50.59375 54.25 C53.26958171 57.46099805 56.08108276 60.51279137 58.9375 63.5625 C63.37582674 68.30116464 67.5289225 73.18369326 71.59375 78.25 C74.26958171 81.46099805 77.08108276 84.51279137 79.9375 87.5625 C84.37582674 92.30116464 88.5289225 97.18369326 92.59375 102.25 C95.26958171 105.46099805 98.08108276 108.51279137 100.9375 111.5625 C105.37582674 116.30116464 109.5289225 121.18369326 113.59375 126.25 C116.26958171 129.46099805 119.08108276 132.51279137 121.9375 135.5625 C126.37582674 140.30116464 130.5289225 145.18369326 134.59375 150.25 C137.26958814 153.46100577 140.08116866 156.51270125 142.9375 159.5625 C147.49681937 164.43297671 151.80716299 169.43804218 155.984375 174.64453125 C157.63294281 176.68545819 159.32347874 178.66173653 161.0625 180.625 C178.94047548 201.46617583 184.23568751 225.24725053 182.9375 252.0625 C180.68074057 276.10935724 167.28792149 295.25244297 151.36328125 312.390625 C148.99209031 315.00237154 146.76919055 317.68609485 144.5625 320.4375 C140.69531137 325.2339071 136.58769284 329.7329146 132.37939453 334.22607422 C129.26210664 337.57331785 126.30183518 340.99245906 123.4375 344.5625 C119.61755989 349.32358478 115.54811181 353.77523025 111.37890625 358.2265625 C108.26181446 361.57366869 105.30168887 364.99264141 102.4375 368.5625 C98.61755989 373.32358478 94.54811181 377.77523025 90.37890625 382.2265625 C87.26181446 385.57366869 84.30168887 388.99264141 81.4375 392.5625 C77.61755989 397.32358478 73.54811181 401.77523025 69.37890625 406.2265625 C66.26181446 409.57366869 63.30168887 412.99264141 60.4375 416.5625 C56.61755989 421.32358478 52.54811181 425.77523025 48.37890625 430.2265625 C45.26181446 433.57366869 42.30168887 436.99264141 39.4375 440.5625 C35.09806592 445.96706789 30.43527866 451.01303871 25.70703125 456.07421875 C23.57833608 458.35643584 21.51935621 460.68236551 19.5 463.0625 C10.63118624 473.19828715 1.94306393 481.71107161 -10.0625 488.0625 C-10.9184375 488.53042969 -11.774375 488.99835938 -12.65625 489.48046875 C-32.79299323 499.57991558 -57.2438085 501.65624552 -78.80078125 495.19140625 C-79.87714844 494.81886719 -80.95351562 494.44632813 -82.0625 494.0625 C-82.96355469 493.76214844 -83.86460937 493.46179688 -84.79296875 493.15234375 C-105.15086558 485.67591423 -120.45601598 471.60870724 -133.71875 454.91015625 C-136.38252877 451.67366504 -139.19615654 448.61876565 -142.0625 445.5625 C-146.50116393 440.82417063 -150.65394865 435.94127414 -154.71875 430.875 C-157.39458171 427.66400195 -160.20608276 424.61220863 -163.0625 421.5625 C-167.50082674 416.82383536 -171.6539225 411.94130674 -175.71875 406.875 C-178.39458171 403.66400195 -181.20608276 400.61220863 -184.0625 397.5625 C-188.50082674 392.82383536 -192.6539225 387.94130674 -196.71875 382.875 C-199.39458171 379.66400195 -202.20608276 376.61220863 -205.0625 373.5625 C-209.50082674 368.82383536 -213.6539225 363.94130674 -217.71875 358.875 C-220.39458171 355.66400195 -223.20608276 352.61220863 -226.0625 349.5625 C-230.50082674 344.82383536 -234.6539225 339.94130674 -238.71875 334.875 C-241.39458599 331.66399681 -244.20614001 328.61226869 -247.0625 325.5625 C-251.58083723 320.73667668 -255.83916524 315.77382549 -259.9765625 310.61328125 C-261.97663418 308.16750071 -264.05612225 305.8314496 -266.1875 303.5 C-283.61586544 283.96642606 -291.31482652 260.25724838 -290.21044922 234.30712891 C-288.51377928 208.56590215 -275.3250473 187.82801239 -258.09667969 169.43969727 C-255.13208673 166.26774994 -252.34040895 163.011909 -249.625 159.625 C-245.78139943 154.84628372 -241.69289836 150.37092313 -237.50415039 145.89868164 C-234.38696055 142.55150673 -231.42676202 139.13244977 -228.5625 135.5625 C-224.74255989 130.80141522 -220.67311181 126.34976975 -216.50390625 121.8984375 C-213.38681446 118.55133131 -210.42668887 115.13235859 -207.5625 111.5625 C-203.74255989 106.80141522 -199.67311181 102.34976975 -195.50390625 97.8984375 C-192.38681446 94.55133131 -189.42668887 91.13235859 -186.5625 87.5625 C-182.74255989 82.80141522 -178.67311181 78.34976975 -174.50390625 73.8984375 C-171.38681446 70.55133131 -168.42668887 67.13235859 -165.5625 63.5625 C-161.74255989 58.80141522 -157.67311181 54.34976975 -153.50390625 49.8984375 C-150.38681446 46.55133131 -147.42668887 43.13235859 -144.5625 39.5625 C-140.22655006 34.16227143 -135.56763787 29.12013259 -130.84375 24.0625 C-128.65182351 21.71233283 -126.52597694 19.31812396 -124.4375 16.875 C-93.10942717 -18.88558193 -39.9031042 -28.12841772 0 0 Z M-87.07421875 50.43359375 C-88.57074536 52.28477298 -90.0599335 54.14190118 -91.54296875 56.00390625 C-94.26768668 59.31158709 -97.13092898 62.43946812 -100.0625 65.5625 C-103.71181979 69.45781563 -107.21952549 73.39589409 -110.5625 77.5625 C-114.38244011 82.32358478 -118.45188819 86.77523025 -122.62109375 91.2265625 C-125.73818554 94.57366869 -128.69831113 97.99264141 -131.5625 101.5625 C-135.38244011 106.32358478 -139.45188819 110.77523025 -143.62109375 115.2265625 C-146.73818554 118.57366869 -149.69831113 121.99264141 -152.5625 125.5625 C-156.38244011 130.32358478 -160.45188819 134.77523025 -164.62109375 139.2265625 C-167.73818554 142.57366869 -170.69831113 145.99264141 -173.5625 149.5625 C-177.38244011 154.32358478 -181.45188819 158.77523025 -185.62109375 163.2265625 C-188.73818554 166.57366869 -191.69831113 169.99264141 -194.5625 173.5625 C-197.90552158 177.72916457 -201.41366931 181.66667858 -205.0625 185.5625 C-209.53867439 190.34242986 -213.74421409 195.26103774 -217.83984375 200.375 C-220.21384202 203.24549352 -222.71062119 205.9626822 -225.25 208.6875 C-235.51317777 219.92281107 -239.96236779 229.79968301 -239.41015625 245.15625 C-238.22120344 258.51527032 -230.45280703 267.7817309 -221.62890625 277.25 C-219.20450693 279.90687597 -216.93531562 282.63079012 -214.6875 285.4375 C-210.82031137 290.2339071 -206.71269284 294.7329146 -202.50439453 299.22607422 C-198.6026747 303.41561567 -194.98932513 307.78413825 -191.40625 312.25 C-188.73041829 315.46099805 -185.91891724 318.51279137 -183.0625 321.5625 C-178.62417326 326.30116464 -174.4710775 331.18369326 -170.40625 336.25 C-167.73041829 339.46099805 -164.91891724 342.51279137 -162.0625 345.5625 C-157.62417326 350.30116464 -153.4710775 355.18369326 -149.40625 360.25 C-146.73041829 363.46099805 -143.91891724 366.51279137 -141.0625 369.5625 C-136.62417326 374.30116464 -132.4710775 379.18369326 -128.40625 384.25 C-125.73041829 387.46099805 -122.91891724 390.51279137 -120.0625 393.5625 C-115.62417326 398.30116464 -111.4710775 403.18369326 -107.40625 408.25 C-104.2475811 412.04040268 -100.88705914 415.62186381 -97.50830078 419.21557617 C-94.30466107 422.64542124 -91.33317338 426.1761098 -88.4375 429.875 C-80.19227495 440.04806544 -71.00693746 445.83572378 -58.0625 448.0625 C-46.00262709 449.26617254 -35.55805655 445.30871168 -26.0625 438.0625 C-20.87839391 433.68808188 -16.81699699 428.35258996 -12.58203125 423.0859375 C-9.8463836 419.80316033 -6.98394547 416.67889285 -4.0625 413.5625 C-0.41345166 409.66690207 3.09449895 405.72913899 6.4375 401.5625 C10.25744011 396.80141522 14.32688819 392.34976975 18.49609375 387.8984375 C21.61318554 384.55133131 24.57331113 381.13235859 27.4375 377.5625 C31.25744011 372.80141522 35.32688819 368.34976975 39.49609375 363.8984375 C42.61318554 360.55133131 45.57331113 357.13235859 48.4375 353.5625 C52.25744011 348.80141522 56.32688819 344.34976975 60.49609375 339.8984375 C63.61318554 336.55133131 66.57331113 333.13235859 69.4375 329.5625 C73.25744011 324.80141522 77.32688819 320.34976975 81.49609375 315.8984375 C84.61318554 312.55133131 87.57331113 309.13235859 90.4375 305.5625 C93.78052356 301.39583295 97.28868726 297.45834097 100.9375 293.5625 C105.43632313 288.75795222 109.67440937 283.82030564 113.78125 278.671875 C115.95768877 276.03806866 118.26537873 273.59473693 120.625 271.125 C128.5322815 262.41593121 133.58631577 251.20099008 133.18359375 239.28515625 C131.67172881 225.63037611 125.73749521 216.65139208 116.50390625 206.83984375 C114.06622109 204.20180091 111.80517114 201.49185648 109.5625 198.6875 C105.69531137 193.8910929 101.58769284 189.3920854 97.37939453 184.89892578 C93.4776747 180.70938433 89.86432513 176.34086175 86.28125 171.875 C83.60541829 168.66400195 80.79391724 165.61220863 77.9375 162.5625 C73.49917326 157.82383536 69.3460775 152.94130674 65.28125 147.875 C62.60541829 144.66400195 59.79391724 141.61220863 56.9375 138.5625 C52.49917326 133.82383536 48.3460775 128.94130674 44.28125 123.875 C41.60541829 120.66400195 38.79391724 117.61220863 35.9375 114.5625 C31.49917326 109.82383536 27.3460775 104.94130674 23.28125 99.875 C20.60541829 96.66400195 17.79391724 93.61220863 14.9375 90.5625 C10.49917326 85.82383536 6.3460775 80.94130674 2.28125 75.875 C-0.87779922 72.08414094 -4.2399485 68.50357747 -7.61669922 64.90722656 C-10.80468008 61.49058913 -13.78725822 57.9813571 -16.6875 54.3125 C-25.53421414 43.41690592 -34.82294615 36.00249371 -49.0625 34.0625 C-63.84836382 33.04278525 -77.55142771 39.20964392 -87.07421875 50.43359375 Z " fill="#FFFFFF" transform="translate(320.0625,158.9375)"/>
<path d="M0 0 C5.95345631 5.12274148 10.85409294 11.13470976 15.75 17.24609375 C17.92586716 19.9092645 20.18178209 22.46042448 22.5 25 C26.41891252 29.29991791 30.09170869 33.75919547 33.75 38.28125 C35.93501569 40.92147729 38.19171391 43.4672972 40.5 46 C44.41891252 50.29991791 48.09170869 54.75919547 51.75 59.28125 C53.93501569 61.92147729 56.19171391 64.4672972 58.5 67 C62.41891252 71.29991791 66.09170869 75.75919547 69.75 80.28125 C71.93501569 82.92147729 74.19171391 85.4672972 76.5 88 C80.41891252 92.29991791 84.09170869 96.75919547 87.75 101.28125 C89.93501569 103.92147729 92.19171391 106.4672972 94.5 109 C98.41891252 113.29991791 102.09170869 117.75919547 105.75 122.28125 C107.93501569 124.92147729 110.19171391 127.4672972 112.5 130 C116.41891252 134.29991791 120.09170869 138.75919547 123.75 143.28125 C125.93501569 145.92147729 128.19171391 148.4672972 130.5 151 C134.41891252 155.29991791 138.09170869 159.75919547 141.75 164.28125 C143.93501569 166.92147729 146.19171391 169.4672972 148.5 172 C152.40288334 176.28910617 156.10299094 180.70763835 159.74609375 185.21875 C161.24269607 187.06551058 162.75570793 188.89909866 164.28515625 190.71875 C173.00256412 201.12580982 179.62394253 211.08896021 184 224 C184.29648437 224.77988281 184.59296875 225.55976563 184.8984375 226.36328125 C193.68522646 250.15720977 188.53718234 274.52784646 178.734375 296.88671875 C171.80571376 310.84838854 159.76671321 322.5342679 149.58203125 334.18408203 C147.01660278 337.12878218 144.47649859 340.09501169 141.9375 343.0625 C141.44628662 343.63629395 140.95507324 344.21008789 140.44897461 344.80126953 C139.46048382 345.95610776 138.47212093 347.11105548 137.48388672 348.26611328 C134.99104476 351.17894046 132.49537234 354.08934061 130 357 C128.9999866 358.16665518 127.99998659 359.33332184 127 360.5 C93 400.16666667 59 439.83333333 25 479.5 C24.50459717 480.07814453 24.00919434 480.65628906 23.4987793 481.25195312 C22.50354573 482.41270771 21.50761993 483.57286915 20.51098633 484.73242188 C17.931921 487.73492844 15.36748029 490.74833082 12.82421875 493.78125 C12.0362793 494.71517578 12.0362793 494.71517578 11.23242188 495.66796875 C10.24085813 496.8438054 9.253493 498.02320292 8.27148438 499.20703125 C1.72007617 506.95044461 -4.32379013 512.05016261 -14.67578125 512.95703125 C-22.37117751 513.09929908 -28.09571589 509.70479444 -34 505 C-39.26632091 499.46361135 -40.88680511 493.50859438 -41 486 C-39.99129795 477.33797125 -35.12827185 470.78035611 -29.5 464.4375 C-28.42692763 463.20716703 -27.35401546 461.97669433 -26.28125 460.74609375 C-25.73597656 460.12460449 -25.19070313 459.50311523 -24.62890625 458.86279297 C-22.0628382 455.9282757 -19.53256621 452.96341945 -17 450 C-16.00018788 448.83317232 -15.00018743 447.66650599 -14 446.5 C-13.505 445.9225 -13.01 445.345 -12.5 444.75 C100 313.5 100 313.5 101.50073242 311.74926758 C102.49845195 310.58518023 103.49601114 309.42095544 104.4934082 308.2565918 C107.02698743 305.29930113 109.56350137 302.34461631 112.10546875 299.39453125 C114.61562443 296.47993302 117.11752945 293.55848899 119.61132812 290.62988281 C120.93061283 289.08143965 122.2542502 287.5367081 123.578125 285.9921875 C132.68703439 275.16404687 137.60372784 265.8041435 137.3046875 251.43359375 C135.78344409 234.29035075 124.47972661 223.18260615 113.66259766 210.89648438 C111.06297852 207.93116257 108.49962165 204.93521606 105.9375 201.9375 C104.94664087 200.77992541 103.95575549 199.6223733 102.96484375 198.46484375 C102.47612793 197.89362793 101.98741211 197.32241211 101.48388672 196.73388672 C98.99104476 193.82105954 96.49537234 190.91065939 94 188 C92.9999866 186.83334482 91.99998659 185.66667816 91 184.5 C90.505 183.9225 90.01 183.345 89.5 182.75 C56 143.66666667 22.5 104.58333333 -11 65.5 C-11.74310425 64.6332666 -11.74310425 64.6332666 -12.5012207 63.74902344 C-13.49774205 62.58611761 -14.49367646 61.42270856 -15.48901367 60.25878906 C-18.03757615 57.28011235 -20.59678585 54.31176031 -23.17578125 51.359375 C-26.15740661 47.93930241 -29.09617195 44.48632923 -32 41 C-32.73863281 40.11570313 -33.47726562 39.23140625 -34.23828125 38.3203125 C-39.31667401 31.73837903 -41.35562603 25.13185485 -40.87109375 16.77734375 C-39.59918017 10.04289604 -35.31590962 4.20293841 -30.4375 -0.4375 C-20.92756532 -6.53361197 -9.28793392 -6.46039335 0 0 Z " fill="#FFFFFF" transform="translate(582,146)"/>
<path d="M0 0 C6.14248665 5.94403708 11.42445805 12.67441639 16.78515625 19.31640625 C18.95632827 21.94708557 21.20241357 24.47942424 23.5 27 C27.41891252 31.29991791 31.09170869 35.75919547 34.75 40.28125 C36.93501569 42.92147729 39.19171391 45.4672972 41.5 48 C45.41891252 52.29991791 49.09170869 56.75919547 52.75 61.28125 C54.93501569 63.92147729 57.19171391 66.4672972 59.5 69 C63.41891252 73.29991791 67.09170869 77.75919547 70.75 82.28125 C72.93501569 84.92147729 75.19171391 87.4672972 77.5 90 C81.41891252 94.29991791 85.09170869 98.75919547 88.75 103.28125 C90.93501569 105.92147729 93.19171391 108.4672972 95.5 111 C99.41891252 115.29991791 103.09170869 119.75919547 106.75 124.28125 C108.93501569 126.92147729 111.19171391 129.4672972 113.5 132 C117.41891252 136.29991791 121.09170869 140.75919547 124.75 145.28125 C126.93501569 147.92147729 129.19171391 150.4672972 131.5 153 C135.41891252 157.29991791 139.09170869 161.75919547 142.75 166.28125 C144.93501569 168.92147729 147.19171391 171.4672972 149.5 174 C154.20410714 179.17696366 158.62929231 184.54029443 163 190 C163.82757812 190.99773437 164.65515625 191.99546875 165.5078125 193.0234375 C180.83968169 211.81091246 188.52743213 235.00727671 186.6953125 259.34765625 C183.72611524 287.41135942 169.46035487 306.45113779 151.56445312 327.18554688 C149.03615887 330.11786318 146.51850179 333.05927394 144 336 C143.00005365 337.16671265 142.00005358 338.33337926 141 339.5 C140.2575 340.36625 140.2575 340.36625 139.5 341.25 C102 385 64.5 428.75 27 472.5 C26.50459717 473.0779834 26.00919434 473.6559668 25.4987793 474.25146484 C24.50290197 475.41329469 23.50697133 476.57507886 22.51098633 477.73681641 C19.42036568 481.34195026 16.33170327 484.94874892 13.24487305 488.55712891 C11.72860462 490.32701991 10.20818152 492.09327581 8.6875 493.859375 C7.08045673 495.72829023 5.50061201 497.60910202 3.9375 499.515625 C-1.45006068 506.00955975 -7.45779537 509.96794925 -16 511 C-23.28973949 511.11510115 -29.50869818 509.15546517 -34.94921875 504.23828125 C-40.13906592 498.70026823 -43.00874605 493.24878124 -43.4375 485.625 C-42.86941143 474.12610385 -35.96902441 466.92675866 -28.62890625 458.81445312 C-26.03229513 455.92206496 -23.51957489 452.95942163 -21 450 C-20.00042936 448.83296544 -19.00042848 447.66629926 -18 446.5 C-17.505 445.9225 -17.01 445.345 -16.5 444.75 C96 313.5 96 313.5 97.50048828 311.74951172 C98.49896795 310.58456459 99.49734061 309.41952574 100.49560547 308.25439453 C103.01799047 305.31065191 105.54230145 302.36860066 108.0703125 299.4296875 C110.5746718 296.51770673 113.07110528 293.59907446 115.56396484 290.67724609 C116.969609 289.03549578 118.38475745 287.40232907 119.80078125 285.76953125 C128.63637619 275.50235439 135.88720856 264.51403318 135.28125 250.375 C133.38606697 234.37123218 125.02722584 224.50426979 114.69482422 212.91259766 C112.0718575 209.95259747 109.50449081 206.9460234 106.9375 203.9375 C105.94674829 202.77983347 104.95586299 201.62228127 103.96484375 200.46484375 C103.47612793 199.89362793 102.98741211 199.32241211 102.48388672 198.73388672 C99.99104476 195.82105954 97.49537234 192.91065939 95 190 C93.9999866 188.83334482 92.99998659 187.66667816 92 186.5 C91.505 185.9225 91.01 185.345 90.5 184.75 C57 145.66666667 23.5 106.58333333 -10 67.5 C-10.4952417 66.9222583 -10.9904834 66.3445166 -11.50073242 65.74926758 C-12.49845195 64.58518023 -13.49601114 63.42095544 -14.4934082 62.2565918 C-17.02698743 59.29930113 -19.56350137 56.34461631 -22.10546875 53.39453125 C-24.61486169 50.48173708 -27.11093524 47.5578979 -29.60253906 44.62988281 C-30.93819658 43.0720824 -32.29121257 41.53119274 -33.6484375 39.9921875 C-39.67404803 32.99155909 -43.7483773 26.52728644 -43.27734375 17.03125 C-42.19505473 9.10462623 -39.01857487 3.29922329 -33 -2 C-21.89585407 -9.417055 -10.26664284 -8.03957109 0 0 Z " fill="#FFFFFF" transform="translate(451,148)"/>
</svg>
